<svg width="276" height="276" viewBox="0 0 276 276" fill="none" xmlns="http://www.w3.org/2000/svg">
<mask id="path-1-inside-1_119_44" fill="white">
<path d="M153.577 62.4224L149.138 59.6992C144.428 56.8103 138.763 55.9108 133.39 57.1985C128.017 58.4862 123.375 61.8556 120.486 66.5656L109.593 84.3245C104.147 93.204 87.9269 107.695 66.6162 94.624C75.4957 100.07 89.9868 116.291 76.9157 137.601L66.0231 155.36C63.1343 160.07 62.2347 165.735 63.5224 171.108C64.8101 176.481 68.1795 181.123 72.8895 184.012L77.3292 186.735M197.975 89.6538L202.414 92.377C207.124 95.2659 210.494 99.9074 211.781 105.281C213.069 110.654 212.17 116.319 209.281 121.028L198.388 138.787C192.942 147.667 187.377 168.694 208.688 181.765C199.808 176.318 178.781 170.753 165.71 192.064L154.818 209.823C151.929 214.533 147.287 217.902 141.914 219.19C136.541 220.478 130.876 219.578 126.166 216.689L121.727 213.966"/>
</mask>
<path d="M146.78 73.5039C152.9 77.2578 160.905 75.3395 164.659 69.2193C168.413 63.0992 166.494 55.0947 160.374 51.3408L146.78 73.5039ZM149.138 59.6992L155.935 48.6177L149.138 59.6992ZM120.486 66.5656L109.404 59.7686L120.486 66.5656ZM73.4132 83.5424C67.293 79.7886 59.2885 81.7069 55.5346 87.827C51.7808 93.9472 53.6991 101.952 59.8192 105.706L73.4132 83.5424ZM66.0231 155.36L54.9416 148.563L66.0231 155.36ZM70.5323 197.816C76.6524 201.57 84.6569 199.652 88.4108 193.532C92.1647 187.412 90.2464 179.407 84.1262 175.653L70.5323 197.816ZM204.772 78.5723C198.651 74.8184 190.647 76.7367 186.893 82.8569C183.139 88.977 185.057 96.9815 191.178 100.735L204.772 78.5723ZM202.414 92.377L209.211 81.2954L202.414 92.377ZM201.891 192.846C208.011 196.6 216.015 194.682 219.769 188.562C223.523 182.441 221.605 174.437 215.485 170.683L201.891 192.846ZM128.524 202.885C122.403 199.131 114.399 201.049 110.645 207.169C106.891 213.29 108.809 221.294 114.93 225.048L128.524 202.885ZM153.577 62.4224L160.374 51.3408L155.935 48.6177L149.138 59.6992L142.341 70.7808L146.78 73.5039L153.577 62.4224ZM149.138 59.6992L155.935 48.6177C148.286 43.9261 139.086 42.4652 130.36 44.5564L133.39 57.1985L136.419 69.8405C138.44 69.3563 140.57 69.6946 142.341 70.7808L149.138 59.6992ZM133.39 57.1985L130.36 44.5564C121.634 46.6476 114.096 52.1196 109.404 59.7686L120.486 66.5656L131.568 73.3625C132.654 71.5916 134.399 70.3247 136.419 69.8405L133.39 57.1985ZM120.486 66.5656L109.404 59.7686L98.5119 77.5275L109.593 84.3245L120.675 91.1215L131.568 73.3625L120.486 66.5656ZM109.593 84.3245L98.5119 77.5275C96.8764 80.1939 93.3808 83.8937 89.0324 85.7147C85.4374 87.2202 80.4568 87.8627 73.4132 83.5424L66.6162 94.624L59.8192 105.706C74.0863 114.456 87.8712 114.389 99.0756 109.697C109.527 105.32 116.864 97.3345 120.675 91.1215L109.593 84.3245ZM66.6162 94.624L59.8192 105.706C62.4857 107.341 66.1854 110.837 68.0064 115.185C69.512 118.78 70.1544 123.761 65.8342 130.804L76.9157 137.601L87.9973 144.398C96.7481 130.131 96.6806 116.346 91.9884 105.142C87.6118 94.6909 79.6262 87.3533 73.4132 83.5424L66.6162 94.624ZM76.9157 137.601L65.8342 130.804L54.9416 148.563L66.0231 155.36L77.1047 162.157L87.9973 144.398L76.9157 137.601ZM66.0231 155.36L54.9416 148.563C50.25 156.212 48.7892 165.412 50.8804 174.138L63.5224 171.108L76.1644 168.078C75.6803 166.058 76.0185 163.928 77.1047 162.157L66.0231 155.36ZM63.5224 171.108L50.8804 174.138C52.9716 182.864 58.4435 190.402 66.0925 195.093L72.8895 184.012L79.6865 172.93C77.9155 171.844 76.6486 170.099 76.1644 168.078L63.5224 171.108ZM72.8895 184.012L66.0925 195.093L70.5323 197.816L77.3292 186.735L84.1262 175.653L79.6865 172.93L72.8895 184.012ZM197.975 89.6538L191.178 100.735L195.617 103.459L202.414 92.377L209.211 81.2954L204.772 78.5723L197.975 89.6538ZM202.414 92.377L195.617 103.459C197.388 104.545 198.655 106.29 199.139 108.31L211.781 105.281L224.423 102.251C222.332 93.5249 216.86 85.987 209.211 81.2954L202.414 92.377ZM211.781 105.281L199.139 108.31C199.624 110.331 199.285 112.461 198.199 114.232L209.281 121.028L220.362 127.825C225.054 120.176 226.515 110.977 224.423 102.251L211.781 105.281ZM209.281 121.028L198.199 114.232L187.307 131.99L198.388 138.787L209.47 145.584L220.362 127.825L209.281 121.028ZM198.388 138.787L187.307 131.99C183.496 138.203 179.704 148.364 180.539 159.663C181.436 171.777 187.624 184.095 201.891 192.846L208.688 181.765L215.485 170.683C208.441 166.363 206.756 161.632 206.469 157.745C206.121 153.044 207.834 148.251 209.47 145.584L198.388 138.787ZM208.688 181.765L215.485 170.683C209.272 166.872 199.111 163.08 187.812 163.916C175.698 164.812 163.38 171 154.629 185.267L165.71 192.064L176.792 198.861C181.112 191.817 185.843 190.133 189.73 189.845C194.431 189.497 199.224 191.211 201.891 192.846L208.688 181.765ZM165.71 192.064L154.629 185.267L143.736 203.026L154.818 209.823L165.899 216.62L176.792 198.861L165.71 192.064ZM154.818 209.823L143.736 203.026C142.65 204.797 140.905 206.064 138.884 206.548L141.914 219.19L144.944 231.832C153.67 229.741 161.208 224.269 165.899 216.62L154.818 209.823ZM141.914 219.19L138.884 206.548C136.864 207.032 134.734 206.694 132.963 205.608L126.166 216.689L119.369 227.771C127.018 232.463 136.218 233.923 144.944 231.832L141.914 219.19ZM126.166 216.689L132.963 205.608L128.524 202.885L121.727 213.966L114.93 225.048L119.369 227.771L126.166 216.689Z" fill="white" mask="url(#path-1-inside-1_119_44)"/>
</svg>
