<svg width="272" height="272" viewBox="0 0 272 272" fill="none" xmlns="http://www.w3.org/2000/svg">
<g clip-path="url(#clip0_119_49)">
<path d="M226.324 112.314C228.638 108.386 229.227 104.204 228.092 99.77C226.957 95.3359 224.434 91.9637 220.522 89.6533L135.22 39.4083C131.31 37.1054 127.14 36.5349 122.709 37.6966C118.277 38.8583 114.904 41.3998 112.588 45.3212L87.3414 88.1823L93.143 110.843L59.4814 167.992C57.1672 171.921 56.5786 176.106 57.7157 180.547C58.8529 184.989 61.3753 188.357 65.283 190.653L136.368 232.524C140.278 234.826 144.449 235.401 148.882 234.247C153.316 233.092 156.688 230.547 159.001 226.611L226.324 112.314Z" fill="white"/>
</g>
<defs>
<clipPath id="clip0_119_49">
<rect width="198.975" height="198" fill="white" transform="matrix(-0.507524 0.861637 0.861637 0.507524 100.984 -0.000976562)"/>
</clipPath>
</defs>
</svg>
