<svg width="255" height="255" viewBox="0 0 255 255" fill="none" xmlns="http://www.w3.org/2000/svg">
<g clip-path="url(#clip0_119_46)">
<path d="M244.124 97.2341L177.19 210.74L170.513 206.803L166.576 213.48L159.899 209.542L155.962 216.219L129.255 200.47L133.192 193.793L126.515 189.856L130.452 183.179L123.776 179.242L135.588 159.211L142.264 163.148L146.202 156.472L152.879 160.409L156.816 153.732L176.846 165.544L196.533 132.16L183.179 124.285L179.242 130.962L159.211 119.15L155.274 125.827L128.567 110.078L124.629 116.755L111.276 108.88L71.9027 175.648L65.2259 171.711L61.2886 178.388L54.6118 174.45L50.6745 181.127L23.9672 165.378L27.9045 158.701L21.2277 154.764L25.165 148.087L18.4882 144.15L30.3001 124.119L36.9769 128.057L40.9142 121.38L47.5911 125.317L51.5284 118.64L71.5588 130.452L110.932 63.6839L124.286 71.5586L128.223 64.8817L148.253 76.6937L152.191 70.0169L178.898 85.7661L182.835 79.0893L202.866 90.9012L206.803 84.2244L226.834 96.0363L230.771 89.3595L244.124 97.2341Z" fill="white"/>
</g>
<defs>
<clipPath id="clip0_119_46">
<rect width="186.031" height="186.031" fill="white" transform="translate(94.4951 -0.000976562) rotate(30.5278)"/>
</clipPath>
</defs>
</svg>
