<svg width="76" height="104" viewBox="0 0 76 104" fill="none" xmlns="http://www.w3.org/2000/svg">
<path d="M28.1568 88.6116L8.83719 34.9584C7.05497 30.0089 7.31192 24.5542 9.55151 19.7941C11.7911 15.0341 15.8299 11.3587 20.7793 9.57648C25.7288 7.79426 31.1836 8.05122 35.9436 10.2908C40.7036 12.5304 44.379 16.5692 46.1612 21.5186L67.1608 79.8374C68.2747 82.9308 68.1141 86.3401 66.7143 89.3151C65.3146 92.2901 62.7904 94.5872 59.6969 95.7011C56.6035 96.815 53.1943 96.6544 50.2193 95.2547C47.2443 93.8549 44.9472 91.3307 43.8333 88.2373L26.1936 39.2495C25.7481 38.0121 25.8123 36.6484 26.3722 35.4584C26.9321 34.2684 27.9418 33.3496 29.1792 32.904C30.4165 32.4584 31.7802 32.5227 32.9702 33.0826C34.1602 33.6425 35.0791 34.6522 35.5246 35.8895L51.4843 80.2118L58.4826 77.6919L42.5229 33.3696C41.409 30.2762 39.1119 27.7519 36.1369 26.3522C33.1619 24.9524 29.7526 24.7919 26.6592 25.9057C23.5658 27.0196 21.0416 29.3167 19.6418 32.2918C18.2421 35.2668 18.0815 38.676 19.1954 41.7694L36.835 90.7572C38.6172 95.7067 42.2926 99.7455 47.0527 101.985C51.8127 104.225 57.2674 104.482 62.2169 102.699C67.1664 100.917 71.2051 97.2417 73.4447 92.4817C75.6843 87.7217 75.9413 82.267 74.159 77.3175L53.1595 18.9987C50.7089 12.1932 45.6553 6.63985 39.1102 3.56041C32.5652 0.480981 25.0649 0.127677 18.2594 2.57823C11.4539 5.02878 5.90055 10.0824 2.82112 16.6275C-0.258314 23.1725 -0.611615 30.6728 1.83894 37.4783L21.1585 91.1316L28.1568 88.6116Z" fill="white"/>
</svg>
